<svg id="Layer_1" data-name="Layer 1" xmlns="http://www.w3.org/2000/svg" xmlns:xlink="http://www.w3.org/1999/xlink" viewBox="0 0 504.1 231.16"><defs><style>.cls-1{fill:none;}.cls-2{clip-path:url(#clip-path);}.cls-3{fill:#fff;}</style><clipPath id="clip-path" transform="translate(-395 -266.4)"><rect class="cls-1" x="395" y="266.4" width="504.1" height="231.16"/></clipPath></defs><title>erielogo-white-aboveall</title><g class="cls-2"><path class="cls-3" d="M628.41,348.9c0.08-14-6.48-21.64-17.19-21.64-11.16,0-17.95,9.35-17.95,20.74s5.43,20.44,17.95,20.44c10,0,14.63-5.65,16.89-13h-5.06c-1.35,5.73-6,9-11.84,9-8.67,0-13.2-7-13.12-15.46h30.31Zm-30.31-3.77c0.91-7.39,5.13-13.8,13.12-13.8,8.15,0,12.37,6.18,12.37,13.8H598.1Zm-8.82-32h-5v6.71h5v-6.71Zm-0.23,15.23h-4.52v39.07h4.52V328.31Zm-21,19.91c0-8.75,2.72-16.29,12.9-16.06v-4.9c-6.56,0-10.26,2.11-12.74,8.37H568v-7.32h-4.52v39.07H568V348.22Zm-8.75,19.16V363H527.52V341.43h28v-4.37h-28V317.45h31v-4.37H522.39v54.3h36.87Z" transform="translate(-395 -266.4)"/><path class="cls-3" d="M806.34,411.52c0.07-14-6.48-21.64-17.2-21.64-11.16,0-17.95,9.35-17.95,20.74,0,11.54,5.43,20.44,17.95,20.44,10,0,14.63-5.66,16.89-13H801c-1.36,5.73-6,9-11.84,9-8.67,0-13.2-7-13.12-15.46h30.32ZM776,407.75c0.9-7.39,5.12-13.8,13.12-13.8s12.37,6.18,12.37,13.8H776Zm-7.52-4.53c-1.36-9.05-7.24-13.35-16.21-13.35-11.69,0-17.95,9.81-17.95,20.66,0,11.54,5.51,20.51,17.95,20.51,9.8,0,15.23-5.88,16.82-14.56h-4.83C763.23,423,759,427,752.3,427c-9.35,0-13.12-8.22-13.12-16.44s3.84-16.59,13.12-16.59c6,0,10,3.47,11.61,9.27h4.6ZM703.75,409a20.12,20.12,0,0,1,1-7.39,11.4,11.4,0,0,1,10.86-7.62c7.24,0,10.1,3.54,10.1,10.56V430h4.53V404.43c0-3.24-.08-6.18-2-9-2.79-4.07-7.16-5.58-11.92-5.58-5.43,0-9,2.64-12.59,6.49v-5.43h-4.52V430h4.52V409Zm-30.59-.9c-9.12,1.21-13.65,5.2-13.65,11.76,0,7.54,6.18,11.24,13,11.24a19.16,19.16,0,0,0,14.55-6.49c0.08,2.72.6,5.36,3.62,5.81a8.7,8.7,0,0,0,2,.23,12.7,12.7,0,0,0,3.55-.75V426.3c-3.85,1.36-4.75.53-4.75-3V402c0-9.05-6.26-12.14-14.17-12.14-8.52,0-15.39,3.7-16.06,12.9h4.6c0.83-6.79,5.13-8.82,11.39-8.82,7,0,9.73,3.32,9.73,7.92,0,1.36-.15,3.4-1.66,4.07a22.68,22.68,0,0,1-6,1.29ZM687,415.59C687,423.51,680,427,672.78,427c-4.3,0-8.45-2.26-8.45-7,0-5.28,4.15-7.76,11-8.29,3.93-.3,7.84-0.6,11.69-2.18v6.11Zm-39.49-4.75c0-8.75,2.71-16.29,12.9-16.06v-4.9c-6.56,0-10.25,2.11-12.74,8.37h-0.15v-7.31H643V430h4.53V410.84Zm-15.66,1.36c0,8.6-4.45,14.78-11.92,14.78-7.09,0-10-3.7-10-10.41V390.93h-4.52v25.72c0,8.15,3.46,14.41,13.87,14.41,6.86,0,10.18-3.77,12.59-6.49V430h4.53V390.93h-4.53V412.2Zm-61.21,5.58c0.37,7.39,5.65,13.28,14.86,13.28s15.91-3.93,15.91-11.39c0-15-25-8.37-25-19,0-4,3.09-6.71,8.83-6.71s9.73,2.19,10.56,8.22h4.6c-1.13-8.82-6.63-12.29-15.09-12.29-8.67,0-13.72,4.67-13.72,11.16,0,15.38,25,7.39,25,18.7,0,3.77-3.09,7.24-9.65,7.24-6.79,0-10.26-2.49-11.69-9.2h-4.6ZM540.54,409a20.11,20.11,0,0,1,1-7.39,11.4,11.4,0,0,1,10.86-7.62c7.24,0,10.1,3.54,10.1,10.56V430H567V404.43c0-3.24-.08-6.18-2-9-2.79-4.07-7.16-5.58-11.92-5.58-5.43,0-9,2.64-12.59,6.49v-5.43H536V430h4.52V409ZM528,375.7h-5.13V430H528V375.7Z" transform="translate(-395 -266.4)"/><path class="cls-3" d="M808.83,379.76a6.45,6.45,0,1,0,6.52,6.43,6.44,6.44,0,0,0-6.52-6.43m0,11.82a5.38,5.38,0,1,1,5.22-5.39,5.21,5.21,0,0,1-5.22,5.39" transform="translate(-395 -266.4)"/><path class="cls-3" d="M811.8,384.61c0-1.47-.87-2.12-2.63-2.12h-2.83v7.44h1.12V386.7h1.3l2,3.22H812l-2.11-3.27a1.94,1.94,0,0,0,1.92-2m-4.33,1.14v-2.31H809c0.79,0,1.62.17,1.62,1.09,0,1.15-.85,1.22-1.81,1.22h-1.35Z" transform="translate(-395 -266.4)"/><path class="cls-3" d="M395,429.84H504.92V266.4H395V429.84ZM443.19,426H421c-1.9,0-3-.84-3-2.54V409.49c0-1.27.42-1.48,0.84-1.48a3.81,3.81,0,0,1,1.9.85l22.83,14.58c0.84,0.64,1.27,1.06,1.27,1.48,0,0.85-.42,1.06-1.69,1.06M499,426h-6.55a4.63,4.63,0,0,1-3-1.06l-59.6-38.46a1.6,1.6,0,0,1-1.06-1.48V379.9c0-1.69.85-1.69,1.91-1.06l69.53,45a1.61,1.61,0,0,1,.85,1.06c0,0.85-.63,1.06-2.12,1.06M445.3,380.75c0-2.11,1.27-4.65,5.07-4.65,5.07,0,8.24,3.38,10.15,5.92,1.06,1.48,1.26,2.11,1.26,2.74,0,0.85-.63,1.27-1.69,1.48l-7.82,2.12a4.65,4.65,0,0,1-1.69.21,4.38,4.38,0,0,1-3-2.11,10,10,0,0,1-2.32-5.71m-46.5-110.53H501.1V417.52a0.9,0.9,0,0,1-1.48.63l-14.79-9.51V384.56l7.4-5.71a2.68,2.68,0,0,0,1.48-2.32,2.72,2.72,0,0,0-1.48-1.9L454.6,350.74V330.45l6.76-7.82a3,3,0,0,0,.85-1.69,1.27,1.27,0,0,0-.63-1.27l-3.17-2.32-3.8-7-11.2-7.82-4.44.64V281.84a1.83,1.83,0,0,0,.63-1.27,1.44,1.44,0,0,0-1.48-1.48,1.59,1.59,0,0,0-1.48,1.48,1.81,1.81,0,0,0,.64,1.27v21.56l-9.73,1.48-13.74,16.06a2.54,2.54,0,0,0-.84,1.69,2.2,2.2,0,0,0,.84,1.69l4.87,4.43v16.7l-18,21.34c-0.85.85-1.9,0.64-1.9-.63v-96Zm43.53,44.59-16.49,3-5.28,6.13a0.64,0.64,0,0,1-.64,0l-1.26-1.06a0.39,0.39,0,0,1,0-.63l6.55-7.82,15.85-2.53c1.06-.21,1.06-0.42,1.06-1.48s-0.42-1.27-.85-1.27L429,311c-0.42,0-.84,0-0.84-0.42,0-.63,0-0.63.63-0.84l14.38-2.32,8.45,5.5,3.8,6.76,1.48,1.27a0.39,0.39,0,0,1,0,.63l-1.48,1.69a0.64,0.64,0,0,1-.85,0Zm7.4,13.95v19.66a0.81,0.81,0,0,1-1.27.63l-3-1.9a1.12,1.12,0,0,1-.63-1.27V328.75c0-1.9.85-3.17,2.54-3.17s2.33,1.27,2.33,3.17M439,341.44a0.83,0.83,0,0,1-1.27.84l-4.44-2.75c-0.42-.21-0.63-0.64-0.63-2.11V325.17a3.08,3.08,0,1,1,6.13,0Zm-11.41-12.26v8a1.59,1.59,0,0,1-.42,1.48L425,341c-0.63.85-1.26,0.42-1.26-.42V329.18c0-1.27.42-2.54,1.9-2.54s1.9,1.27,1.9,2.54m-28.74,48a2.3,2.3,0,0,1,.63-1.91l27.9-33a2.59,2.59,0,0,1,2.12-1.27,5.87,5.87,0,0,1,2.53,1.05L485,375a2.47,2.47,0,0,1,1.27,1.69c0,0.85-.21,1.06-1.05,1.7l-5.29,3.8v4.44a1.22,1.22,0,0,1-1.9,1.06l-48.4-30.44a1.71,1.71,0,0,1-1.06-1.9v-0.63c0-.84-0.21-1.27-0.84-1.27-0.43,0-.63.42-1.48,1.48l-26,30.43c-0.63.85-1.48,0.63-1.48-.42v-7.81Zm0,33.18a2.28,2.28,0,0,1,.63-1.48L418,386.67V385c0-1.27.64-1.47,1.69-.84l61.93,39.73c1.27,0.64,1.27,2.12-.42,2.12H452.7a4.44,4.44,0,0,1-3.17-1.06L419.1,405.27c-1.06-.64-1.06-0.64-1.06-1.69v-0.85c0-.63-0.21-0.85-0.63-0.85s-1.06.85-1.69,1.69l-14.8,17.33a2.81,2.81,0,0,1-1.27,1.06c-0.63,0-.84-0.21-0.84-1.27V410.34Z" transform="translate(-395 -266.4)"/><path class="cls-3" d="M892.07,473.09H893v-5.87h0l2.21,5.87H896l2.2-5.87h0v5.87h0.89V466h-1.29L895.59,472,893.36,466h-1.28v7.05Zm-1.28-5c-0.06-1.55-1.16-2.23-2.6-2.23-1.29,0-2.56.63-2.56,2.06s1.13,1.62,2.26,1.87,2.26,0.41,2.26,1.38-0.94,1.29-1.79,1.29a1.79,1.79,0,0,1-2.06-1.7h-0.89c0,1.72,1.33,2.49,2.92,2.49,1.28,0,2.76-.6,2.76-2.1s-1.13-1.78-2.25-2-2.26-.39-2.26-1.26a1.32,1.32,0,0,1,1.58-1.21,1.55,1.55,0,0,1,1.75,1.45h0.89Zm-7.55.94h-12L869,481.61l2.49,0.14a5.83,5.83,0,0,1,4.51-2.29A5.25,5.25,0,0,1,881.5,485c0,3.86-2.36,5.74-5.13,5.74a4.77,4.77,0,0,1-5.09-4.37h-2.91c0.1,4.38,3.52,6.93,7.72,6.93,5.64,0,8.48-4,8.48-8.06,0-5.54-3.52-8.3-7.83-8.3a6.14,6.14,0,0,0-4.51,1.74l-0.07-.07,1.3-7h9.77V469Zm-28.64,8.17c-0.1-2.91,1.33-6,4.72-6a4.41,4.41,0,0,1,4.69,4.38c0,3.35-2.09,4.86-6.19,7.39-3.41,2.12-6.32,4.17-6.8,9.91h15.82V490.3H854.4c0.58-3,3.76-4.55,6.8-6.39s5.88-4,5.88-8.3c0-4.52-3.35-7-7.58-7-5.13,0-8,3.66-7.79,8.58h2.9ZM834.14,487c0.38,4.17,3.28,6.25,7.35,6.25,5.88,0,8.4-4.68,8.4-13,0-9.17-3.79-11.59-8.3-11.59a7.57,7.57,0,0,0-8,7.89c0,4.79,2.73,8.1,7.65,8.1a6.34,6.34,0,0,0,5.6-3.34l0.07,0.07c-0.17,6.26-1.91,9.37-5.47,9.37-2.32,0-4.24-1.33-4.44-3.69h-2.91Zm12.31-10.29c0,2.87-1.91,5.33-5,5.33a5,5,0,0,1-4.78-5.12c0-3,1.3-5.75,4.75-5.75,3.25,0,5,2.56,5,5.54m-16.36-8.1h-2.22c-0.65,3.66-3.66,4.55-7,4.55v2.32h6.29v17.37h2.9V468.63Zm-33.66,13.7a5,5,0,0,1,5.06-5,5.09,5.09,0,0,1,5.09,5H796.42Zm10.08,4.92a4.26,4.26,0,0,1-4.58,3.45c-3.86,0-5.61-2.74-5.5-5.82h13.23c0.17-4.27-1.74-10.11-8-10.11-4.82,0-8.3,3.89-8.3,9.19,0.17,5.4,2.83,9.29,8.47,9.29,4,0,6.77-2.12,7.55-6h-2.87Zm-14.43-6.39c-0.41-4.2-3.62-6.08-7.62-6.08-5.6,0-8.34,4.16-8.34,9.47s2.87,9,8.27,9c4.44,0,7.14-2.56,7.79-6.87h-3a4.57,4.57,0,0,1-4.85,4.31c-3.69,0-5.16-3.21-5.16-6.46,0-3.59,1.3-6.91,5.5-6.91a4.12,4.12,0,0,1,4.37,3.52h3Zm-32.76,12h2.9v-10c0-3.18,1.71-5.54,5.23-5.54A3.33,3.33,0,0,1,771,480.9v12h2.9V481.24c0-3.79-1.43-6.45-6.08-6.45a6.15,6.15,0,0,0-5.75,3.21H762v-2.8h-2.73v17.67Zm-3.14-24.4h-2.9V472h2.9v-3.55Zm-2.9,24.4h2.9V475.19h-2.9v17.67Zm-17.15-5.57c0.17,4.38,3.52,6,7.48,6,3.59,0,7.52-1.36,7.52-5.57,0-3.42-2.87-4.37-5.77-5-2.7-.65-5.78-1-5.78-3.08,0-1.78,2-2.26,3.76-2.26,1.91,0,3.89.72,4.1,3h2.9c-0.24-4.3-3.34-5.53-7.24-5.53-3.08,0-6.59,1.47-6.59,5,0,3.38,2.9,4.34,5.77,5s5.78,1,5.78,3.28-2.46,2.63-4.27,2.63c-2.4,0-4.65-.82-4.75-3.42h-2.9Zm-7.83-4.81H711.2v2h17.08v-2Z" transform="translate(-395 -266.4)"/><polygon class="cls-3" points="291.22 222.34 308.17 222.34 308.17 219.61 294.46 219.61 294.46 211.17 307.14 211.17 307.14 208.44 294.46 208.44 294.46 200.67 308.07 200.67 308.07 197.94 291.22 197.94 291.22 222.34"/><path class="cls-3" d="M683.6,479.92c-0.75-5.19-5-7.92-10-7.92C666,472,662,477.77,662,484.85s3.69,12.71,11.27,12.71c6.15,0,9.94-3.68,10.56-9.77H680.6c-0.3,4-2.77,7-7,7-5.84,0-8.3-4.65-8.3-10.22,0-5.09,2.46-9.88,8.27-9.88,3.38,0,6.15,1.74,6.84,5.19h3.24Z" transform="translate(-395 -266.4)"/><rect class="cls-3" x="261.14" y="197.94" width="3.24" height="24.4"/><polygon class="cls-3" points="255.22 206.18 248.18 227.34 248.12 227.34 241.14 206.18 237.62 206.18 246.24 230.58 249.93 230.58 258.61 206.18 255.22 206.18"/><path class="cls-3" d="M612.09,488.74h3.25V478.32h7.93c3.14,0,3.72,2,4.07,4.41s0,5,.89,6h3.62c-1.37-1.67-1.23-4.34-1.43-6.73s-0.82-4.48-3.66-5v-0.07c2.94-.82,4.23-3.24,4.23-6.18,0-3.9-2.83-6.39-7.41-6.39H612.09v24.4Zm3.25-13.15v-8.51h8.07c3,0,4.34,1.78,4.34,4.17,0,3.55-2.59,4.34-5.64,4.34h-6.77Zm-22.91,13.15h16.95V486H595.67v-8.45h12.68v-2.73H595.67v-7.77h13.6v-2.73H592.43v24.4Z" transform="translate(-395 -266.4)"/><path class="cls-3" d="M589,479.72c-0.2-5.36-4-7.72-9-7.72-4.45,0-8.85,2.18-8.85,7.14,0,4.48,3.93,5.6,7.82,6.46s7.8,1.43,7.8,4.79c0,3.52-3.25,4.44-6.19,4.44-3.69,0-7.11-1.78-7.11-5.88h-3.07c0,5.95,4.61,8.61,10.08,8.61,4.44,0,9.53-2.08,9.53-7.28,0-4.78-3.89-6.15-7.79-7s-7.83-1.33-7.83-4.34c0-3.17,2.74-4.17,5.47-4.17,3.35,0,5.67,1.5,6.05,5H589Zm-44.46,13.14h2.9v-10c0-3.18,1.71-5.53,5.24-5.53a3.33,3.33,0,0,1,3.59,3.55v12h2.9V481.24c0-3.8-1.43-6.46-6.08-6.46a6.15,6.15,0,0,0-5.74,3.21h-0.07v-2.8h-2.73v17.66Zm-2.8-24.4h-2.9V472h2.9v-3.55Zm-2.9,24.4h2.9V475.19h-2.9v17.66Zm-15,0h2.9v-24.4h-2.9v24.4Zm-6.12,0h2.9v-24.4h-2.9v24.4Zm-2.06-2.32a2.52,2.52,0,0,1-.89.17c-0.92,0-.92-0.61-0.92-2v-9.1c0-4.14-3.45-4.85-6.63-4.85-3.93,0-7.31,1.53-7.48,5.91h2.9c0.14-2.6,1.95-3.35,4.41-3.35,1.85,0,3.93.41,3.93,2.94,0,2.18-2.74,2-5.95,2.59-3,.58-6,1.44-6,5.43,0,3.52,2.63,5,5.84,5a7.83,7.83,0,0,0,6.22-2.73c0,1.91,1,2.73,2.46,2.73a3.9,3.9,0,0,0,2.09-.48v-2.25Zm-4.71-3.83c0,1.6-1.57,4-5.4,4-1.78,0-3.42-.68-3.42-2.6,0-2.15,1.64-2.84,3.56-3.18s4.13-.38,5.26-1.2v3Zm-34.63-4.37c0.21-2.7,2-5,5.07-5a5.08,5.08,0,0,1,5.09,5H476.29Zm10.09,4.92a4.26,4.26,0,0,1-4.58,3.45c-3.87,0-5.61-2.74-5.51-5.81h13.23c0.17-4.27-1.74-10.11-8-10.11-4.82,0-8.3,3.89-8.3,9.19,0.17,5.4,2.83,9.29,8.47,9.29,4,0,6.77-2.11,7.55-6h-2.87Zm-13-12.06h-3l-4.82,14.73h-0.07l-5-14.73h-3.25l6.56,17.66h3.11ZM443.33,484c0-4.31,2.46-6.7,5.51-6.7s5.51,2.39,5.51,6.7-2.46,6.66-5.51,6.66-5.51-2.4-5.51-6.66m-3.07,0c0,5.16,3,9.22,8.58,9.22s8.57-4.06,8.57-9.22-3-9.26-8.57-9.26-8.58,4.06-8.58,9.26m-18.06,8.81h2.9V490.5h0.07c1.3,2.08,3.9,2.76,5.71,2.76,5.4,0,8.06-4.2,8.06-9.19s-2.7-9.29-8.13-9.29c-2.42,0-4.68.85-5.64,2.8h-0.07v-9.12h-2.9v24.4Zm13.67-9c0,3.45-1.33,6.84-5.3,6.84S425,487.5,425,484c0-3.32,1.5-6.66,5.4-6.66s5.47,3.21,5.47,6.53M409,471.39H409l4.06,11.39h-8.27Zm-11.24,21.46h3.35l2.73-7.35h10.32l2.66,7.35h3.59l-9.53-24.4h-3.59Z" transform="translate(-395 -266.4)"/></g></svg>